<svg width="24" height="24" viewBox="0 0 24 24" fill="none" xmlns="http://www.w3.org/2000/svg">
<path d="M22.002 0H1.998C1.4681 0 0.959898 0.210503 0.585201 0.585201C0.210503 0.959898 0 1.4681 0 1.998V22.002C0 22.5319 0.210503 23.0401 0.585201 23.4148C0.959898 23.7895 1.4681 24 1.998 24H22.002C22.2644 24 22.5242 23.9483 22.7666 23.8479C23.009 23.7475 23.2293 23.6003 23.4148 23.4148C23.6003 23.2293 23.7475 23.009 23.8479 22.7666C23.9483 22.5242 24 22.2644 24 22.002V1.998C24 1.73562 23.9483 1.47581 23.8479 1.2334C23.7475 0.99099 23.6003 0.770732 23.4148 0.585201C23.2293 0.399669 23.009 0.252498 22.7666 0.152089C22.5242 0.0516797 22.2644 0 22.002 0ZM10.875 4H13.125V14H10.875V4ZM12 20C11.7033 20 11.4133 19.912 11.1666 19.7472C10.92 19.5824 10.7277 19.3481 10.6142 19.074C10.5006 18.7999 10.4709 18.4983 10.5288 18.2074C10.5867 17.9164 10.7296 17.6491 10.9393 17.4393C11.1491 17.2296 11.4164 17.0867 11.7074 17.0288C11.9983 16.9709 12.2999 17.0007 12.574 17.1142C12.8481 17.2277 13.0824 17.42 13.2472 17.6666C13.412 17.9133 13.5 18.2033 13.5 18.5C13.5 18.8978 13.342 19.2794 13.0607 19.5607C12.7794 19.842 12.3978 20 12 20Z" fill="#696C85"/>
</svg>
