<svg width="144" height="144" viewBox="0 0 144 144" fill="none" xmlns="http://www.w3.org/2000/svg">
<g clip-path="url(#clip0_1634_14)">
<path d="M130.9 72.2C130.9 104.619 104.619 130.9 72.2 130.9C39.7809 130.9 13.5 104.619 13.5 72.2C13.5 39.7809 39.7809 13.5 72.2 13.5C104.619 13.5 130.9 39.7809 130.9 72.2Z" fill="#039BE5" stroke="#CFD8DC" stroke-width="3"/>
<path d="M39.5475 70.8954L97.5903 48.5161C100.284 47.5429 102.637 49.1733 101.764 53.2468L101.769 53.2418L91.8864 99.8015C91.1539 103.102 89.1924 103.905 86.4483 102.35L71.3983 91.2581L64.1392 98.2513C63.3365 99.054 62.6593 99.7312 61.1041 99.7312L62.1727 84.4154L90.0653 59.2166C91.2794 58.1481 89.7944 57.5461 88.1941 58.6096L53.7246 80.3117L38.8652 75.6763C35.6395 74.6529 35.5693 72.4506 39.5475 70.8954Z" fill="white"/>
</g>
<defs>
<clipPath id="clip0_1634_14">
<rect width="120.4" height="120.4" fill="white" transform="translate(12 12)"/>
</clipPath>
</defs>
</svg>
